<?xml version="1.0" encoding="UTF-8"?>
<svg width="350px" height="63px" viewBox="0 0 350 63" version="1.1" xmlns="http://www.w3.org/2000/svg" xmlns:xlink="http://www.w3.org/1999/xlink">
    <!-- Generator: sketchtool 55 (78076) - https://sketchapp.com -->
    <title>B9767EFA-BF5A-4C20-A976-D6B31C070035</title>
    <desc>Created with sketchtool.</desc>
    <defs>
        <polygon id="path-1" points="0 0.748424051 10.3484668 0.748424051 10.3484668 15.7943599 0 15.7943599"></polygon>
        <polygon id="path-3" points="0.627837529 0.605597468 12.4877918 0.605597468 12.4877918 15.1518987 0.627837529 15.1518987"></polygon>
    </defs>
    <g id="8-Iberinform-FichaProducto-Insight-VIew" stroke="none" stroke-width="1" fill="none" fill-rule="evenodd">
        <g transform="translate(-67.000000, -30.000000)" id="cabecera">
            <g>
                <g id="Group-77" transform="translate(67.000000, 30.000000)">
                    <g id="Group-3" transform="translate(0.000000, 43.161858)">
                        <mask id="mask-2" fill="white">
                            <use xlink:href="#path-1"></use>
                        </mask>
                        <g id="Clip-2"></g>
                        <path d="M10.3484668,15.0215127 C9.44423341,15.4178544 8.22684211,15.8157911 6.42237986,15.793462 C2.33130435,15.7727278 -0.000160183066,13.4114241 -0.000160183066,8.27333544 C-0.000160183066,3.17272785 2.62604119,0.748424051 6.65464531,0.748424051 C8.39663616,0.748424051 9.75899314,1.08415823 10.1586499,1.2915 L10.1586499,4.49014557 L8.83633867,4.49014557 L8.83633867,2.62725949 L8.58645309,2.35612025 C8.03942792,2.16712025 7.40990847,2.06663924 6.65464531,2.06663924 C3.54869565,2.06663924 2.14148741,4.17674051 2.14148741,8.12660127 C2.14148741,12.3890696 3.54869565,14.4369684 6.75796339,14.4369684 C7.53645309,14.4369684 8.16437071,14.3524367 8.72981693,14.1650316 L9.00372998,13.8739557 L9.00372998,11.9305253 L10.3484668,11.9305253 L10.3484668,15.0215127 Z" id="Fill-1" fill="#878786" mask="url(#mask-2)"></path>
                    </g>
                    <path d="M15.9928375,57.7247468 L17.6098856,57.7247468 L17.6098856,58.7478987 L12.0891762,58.7478987 L12.0891762,57.7247468 L13.4739588,57.7247468 L13.7686957,57.4089494 L13.7686957,49.1551519 L13.4739588,48.8417468 L12.0891762,48.8417468 L12.0891762,47.7547975 L14.6913501,47.7547975 C15.3857437,47.7547975 15.5931808,48.1120633 15.5931808,48.5905443 L15.5931808,49.2396835 L15.6356293,49.2396835 C16.0577117,48.7596076 17.2542792,47.5474557 19.0146911,47.5474557 C19.3510755,47.5474557 19.5817391,47.5897215 19.7715561,47.6096582 L19.7715561,51.0563165 L18.5741876,51.0563165 L18.5741876,49.4908861 L18.2594279,49.1974177 C17.0844851,49.2819494 16.1826545,49.8864304 15.6780778,50.4311013 L15.6780778,57.4089494 L15.9928375,57.7247468 Z" id="Fill-4" fill="#878786"></path>
                    <path d="M29.970492,53.7529557 L23.3180892,53.7529557 C23.443032,56.5345253 24.786968,57.702019 26.9470366,57.702019 C28.1235812,57.702019 29.1111098,57.4085506 29.6757551,57.158943 L29.6757551,58.2466899 C28.9637414,58.6422342 27.9137414,58.9556392 26.3391419,58.9556392 C23.5279291,58.9556392 21.343833,57.2841456 21.343833,53.378943 C21.343833,49.4059557 23.4854805,47.547057 26.0668307,47.547057 C28.3758696,47.547057 30.2652288,49.1164747 30.2652288,52.0391962 L30.2652288,53.4818165 L29.970492,53.7529557 Z M23.3180892,52.5232595 L28.334222,52.5232595 L28.334222,51.9139937 C28.334222,49.7193608 27.369119,48.7368797 26.0243822,48.7368797 C24.5146568,48.7368797 23.4854805,49.9705633 23.3180892,52.5232595 L23.3180892,52.5232595 Z M25.9418879,46.5861076 L25.4172883,46.0215 L27.8088215,43.1378544 L28.2068764,43.1378544 L29.0886842,44.1833354 L26.2566476,46.5861076 L25.9418879,46.5861076 Z" id="Fill-6" fill="#878786"></path>
                    <path d="M40.2955721,58.7476595 C39.6035812,58.7476595 39.4361899,58.394381 39.4361899,57.9135076 L39.4361899,57.3265709 L39.3937414,57.3265709 C38.8058696,58.0379127 37.6717735,58.9550013 36.2869908,58.9550013 C34.0204005,58.9550013 32.1734897,57.2005709 32.1734897,53.3783051 C32.1734897,49.6357861 34.0852746,47.5480139 36.7266934,47.5480139 C37.8415675,47.5480139 38.7009497,47.987419 39.3112471,48.4459633 L39.3112471,44.8709127 L39.0157094,44.5790392 L37.6093021,44.5790392 L37.6093021,43.4920899 L40.3604462,43.4920899 C41.0300114,43.4920899 41.2198284,43.8477608 41.2198284,44.3079 L41.2198284,57.4095076 L41.5345881,57.7245076 L42.9193707,57.7245076 L42.9193707,58.7476595 L40.2955721,58.7476595 Z M39.3112471,56.177419 L39.3112471,49.8869886 C38.8266934,49.3845835 38.0514073,48.8215709 36.9589588,48.8215709 C35.2802403,48.8215709 34.1885927,50.2625962 34.1885927,53.3535835 C34.1885927,56.2619506 35.1120481,57.5139759 36.7699428,57.5139759 C37.6717735,57.5139759 38.4911098,57.0753684 39.3112471,56.177419 L39.3112471,56.177419 Z" id="Fill-8" fill="#878786"></path>
                    <path d="M46.9086499,47.7551962 C47.5782151,47.7551962 47.768833,48.1108671 47.768833,48.590943 L47.768833,57.4093481 L48.0627689,57.7251456 L49.4675744,57.7251456 L49.4675744,58.7482975 L44.1575057,58.7482975 L44.1575057,57.7251456 L45.564714,57.7251456 L45.8586499,57.4093481 L45.8586499,49.1555506 L45.564714,48.8421456 L44.1575057,48.8421456 L44.1575057,47.7551962 L46.9086499,47.7551962 Z M46.613913,43.4927278 C47.3691762,43.4927278 47.7904577,43.9329304 47.7904577,44.6020063 C47.7904577,45.2686899 47.3691762,45.7272342 46.613913,45.7272342 C45.8370252,45.7272342 45.4373684,45.2686899 45.4373684,44.6020063 C45.4373684,43.9329304 45.8370252,43.4927278 46.613913,43.4927278 L46.613913,43.4927278 Z" id="Fill-10" fill="#878786"></path>
                    <path d="M54.0230206,48.8423848 L54.0230206,57.4095873 L54.3153547,57.7253848 L56.9191304,57.7253848 L56.9191304,58.7485367 C56.9191304,58.7485367 54.8207323,58.955081 54.000595,58.955081 C52.7615789,58.955081 52.1136384,58.4773975 52.1136384,57.116119 L52.1136384,48.8423848 L50.5798856,48.8423848 L50.5798856,47.7977013 L51.8189016,47.7977013 L52.1136384,47.5042329 L52.8240503,44.7465873 L54.0230206,44.7465873 L54.0230206,47.7977013 L56.4770252,47.7977013 L56.4770252,48.8423848 L54.0230206,48.8423848 Z" id="Fill-12" fill="#878786"></path>
                    <path d="M62.459222,58.9551608 C59.8994966,58.9551608 57.6937757,57.1385278 57.6937757,53.2500722 C57.6937757,49.3855405 59.8994966,47.5481734 62.459222,47.5481734 C65.0205492,47.5481734 67.2446911,49.3855405 67.2446911,53.2500722 C67.2446911,57.1385278 65.0205492,58.9551608 62.459222,58.9551608 M62.459222,48.7778696 C60.6948055,48.7778696 59.6880549,50.2212873 59.6880549,53.2500722 C59.6880549,56.2820468 60.6948055,57.7454013 62.459222,57.7454013 C64.2212357,57.7454013 65.2504119,56.2820468 65.2504119,53.2500722 C65.2504119,50.2212873 64.2212357,48.7778696 62.459222,48.7778696" id="Fill-14" fill="#878786"></path>
                    <g id="Group-18" transform="translate(69.679634, 47.149200)">
                        <mask id="mask-4" fill="white">
                            <use xlink:href="#path-3"></use>
                        </mask>
                        <g id="Clip-17"></g>
                        <polygon id="Fill-16" fill="#878786" mask="url(#mask-4)" points="7.97463387 0.605597468 7.97463387 1.69254684 9.31696796 1.69254684 9.56925629 2.00674937 6.86056064 9.42400253 4.11342105 2.00674937 4.40575515 1.69254684 5.64316934 1.69254684 5.64316934 0.605597468 0.627837529 0.605597468 0.627837529 1.69254684 1.88687643 1.69254684 2.16159039 1.98601519 5.95792906 11.9121038 5.26593822 13.8156608 4.95358124 14.1274709 3.31410755 14.1274709 3.31410755 15.1522177 8.22451945 15.1522177 8.22451945 14.1274709 6.9054119 14.1274709 6.63229977 13.8156608 10.9764645 2.00674937 11.2704005 1.69254684 12.4877918 1.69254684 12.4877918 0.605597468"></polygon>
                    </g>
                    <path d="M96.1660641,58.1833709 C95.2642334,58.5797127 94.0468421,58.9776494 92.2423799,58.9553203 C88.1489016,58.9345861 85.8174371,56.5732823 85.8174371,51.4351937 C85.8174371,46.3345861 88.4412357,43.9102823 92.4706407,43.9102823 C94.2142334,43.9102823 95.5789931,44.2460165 95.9762471,44.4533582 L95.9762471,47.6520038 L94.6539359,47.6520038 L94.6539359,45.7891177 L94.4040503,45.5179785 C93.858627,45.3289785 93.2291076,45.2284975 92.4706407,45.2284975 C89.3662929,45.2284975 87.9590847,47.3385987 87.9590847,51.2884595 C87.9590847,55.5509278 89.3662929,57.5988266 92.5771625,57.5988266 C93.3524485,57.5988266 93.9835698,57.5142949 94.5514188,57.3268899 L94.8213272,57.0358139 L94.8213272,55.0923835 L96.1660641,55.0923835 L96.1660641,58.1833709 Z" id="Fill-19" fill="#878786"></path>
                    <path d="M108.169622,58.7476595 L105.548227,58.7476595 C104.853032,58.7476595 104.665618,58.394381 104.665618,57.9135076 L104.665618,57.3066342 L104.600744,57.3066342 C104.015275,57.9940519 102.988501,58.9550013 101.347426,58.9550013 C99.1881579,58.9550013 98.118135,57.5355076 98.118135,55.8018114 C98.118135,53.7092544 99.6278604,52.5840266 101.581293,52.5840266 L104.560698,52.5840266 L104.560698,51.3918114 C104.560698,49.9491911 104.225915,48.7593684 102.231636,48.7593684 C101.581293,48.7593684 100.951773,48.9268367 100.447197,49.0727734 L100.154863,49.3439127 L100.154863,51.0784063 L98.8101259,51.0784063 L98.8101259,48.2792924 C99.6903318,47.9658873 101.012643,47.5480139 102.756236,47.5480139 C105.589874,47.5480139 106.47008,49.1557101 106.47008,51.0991405 L106.47008,57.3887734 L106.764817,57.7245076 L108.169622,57.7245076 L108.169622,58.7476595 Z M104.560698,56.1997481 L104.560698,53.8161152 L102.064245,53.8161152 C100.866876,53.8161152 100.04754,54.2961911 100.04754,55.7396089 C100.04754,56.8042291 100.425572,57.4940392 101.999371,57.4940392 C102.902002,57.4940392 103.806236,56.9493684 104.560698,56.1997481 L104.560698,56.1997481 Z" id="Fill-21" fill="#878786"></path>
                    <path d="M117.656625,47.7551962 C118.326991,47.7551962 118.516808,48.1108671 118.516808,48.590943 L118.516808,57.4093481 L118.831568,57.7251456 L120.217952,57.7251456 L120.217952,58.7482975 L117.591751,58.7482975 C116.902162,58.7482975 116.734771,58.3942215 116.734771,57.9141456 L116.734771,57.3471456 L116.691522,57.3471456 C116.039577,58.0385506 114.887059,58.9548418 113.313261,58.9548418 C110.834428,58.9548418 110.122414,57.4516139 110.122414,55.6134494 L110.122414,49.1555506 L109.827677,48.8421456 L108.420469,48.8421456 L108.420469,47.7551962 L111.15159,47.7551962 C111.821156,47.7551962 112.031796,48.1507405 112.031796,48.6754747 L112.031796,55.3415127 C112.031796,56.4069304 112.346556,57.4938797 114.005252,57.4938797 C114.907883,57.4938797 115.747243,57.1182722 116.606625,56.1979937 L116.606625,49.1555506 L116.312689,48.8421456 L114.907883,48.8421456 L114.907883,47.7551962 L117.656625,47.7551962 Z" id="Fill-23" fill="#878786"></path>
                    <path d="M129.179954,58.2048228 C128.548032,58.7048354 127.415538,58.954443 126.261419,58.954443 C123.552723,58.954443 121.243684,57.2000127 121.243684,53.4399494 C121.243684,49.6376203 123.595172,47.5474557 126.408787,47.5474557 C127.771144,47.5474557 128.842769,47.8807975 129.199977,48.0275316 L129.199977,50.8489747 L127.878467,50.8489747 L127.878467,49.2189494 L127.603753,48.9677468 C127.290595,48.8640759 126.910961,48.7771519 126.53373,48.7771519 C124.476979,48.7771519 123.239565,50.2421013 123.239565,53.3538228 C123.239565,56.4280633 124.601922,57.682481 126.74357,57.682481 C127.711076,57.682481 128.697002,57.4312785 129.179954,57.1593418 L129.179954,58.2048228 Z" id="Fill-25" fill="#878786"></path>
                    <path d="M133.670286,47.7551962 C134.342254,47.7551962 134.530469,48.1108671 134.530469,48.590943 L134.530469,57.4093481 L134.825206,57.7251456 L136.231613,57.7251456 L136.231613,58.7482975 L130.921545,58.7482975 L130.921545,57.7251456 L132.32635,57.7251456 L132.621087,57.4093481 L132.621087,49.1555506 L132.32635,48.8421456 L130.921545,48.8421456 L130.921545,47.7551962 L133.670286,47.7551962 Z M133.375549,43.4927278 C134.132414,43.4927278 134.552895,43.9329304 134.552895,44.6020063 C134.552895,45.2686899 134.132414,45.7272342 133.375549,45.7272342 C132.598661,45.7272342 132.201407,45.2686899 132.201407,44.6020063 C132.201407,43.9329304 132.598661,43.4927278 133.375549,43.4927278 L133.375549,43.4927278 Z" id="Fill-27" fill="#878786"></path>
                    <path d="M142.086945,58.9551608 C139.525618,58.9551608 137.323101,57.1385278 137.323101,53.2500722 C137.323101,49.3855405 139.525618,47.5481734 142.086945,47.5481734 C144.64587,47.5481734 146.870011,49.3855405 146.870011,53.2500722 C146.870011,57.1385278 144.64587,58.9551608 142.086945,58.9551608 L142.086945,58.9551608 Z M142.086945,48.7778696 C140.324931,48.7778696 139.315778,50.2212873 139.315778,53.2500722 C139.315778,56.2820468 140.324931,57.7454013 142.086945,57.7454013 C143.850561,57.7454013 144.875732,56.2820468 144.875732,53.2500722 C144.875732,50.2212873 143.850561,48.7778696 142.086945,48.7778696 L142.086945,48.7778696 Z M141.982025,46.5856291 L141.456625,46.0210215 L143.850561,43.1389709 L144.248616,43.1389709 L145.128021,44.1844519 L142.294382,46.5856291 L141.982025,46.5856291 Z" id="Fill-29" fill="#878786"></path>
                    <path d="M148.151236,58.7476595 L148.151236,57.7245076 L149.53762,57.7245076 L149.830755,57.4095076 L149.830755,49.1557101 L149.53762,48.8423051 L148.151236,48.8423051 L148.151236,47.7545582 L150.755011,47.7545582 C151.447002,47.7545582 151.656842,48.1126215 151.656842,48.5911025 L151.656842,49.1780392 L151.699291,49.1780392 C152.32881,48.4858367 153.523776,47.5480139 155.118398,47.5480139 C157.512334,47.5480139 158.350092,49.0512418 158.350092,50.8894063 L158.350092,57.4095076 L158.666453,57.7245076 L160.051236,57.7245076 L160.051236,58.7476595 L154.888535,58.7476595 L154.888535,57.7245076 L156.147574,57.7245076 L156.443112,57.4095076 L156.443112,51.1836722 C156.443112,50.0959253 156.147574,49.0305076 154.636247,49.0305076 C153.543799,49.0305076 152.644371,49.4268494 151.741739,50.369457 L151.741739,57.4095076 L152.056499,57.7245076 L153.313936,57.7245076 L153.313936,58.7476595 L148.151236,58.7476595 Z" id="Fill-31" fill="#878786"></path>
                    <path d="M178.843753,13.8012266 C181.677391,16.536543 182.779451,21.1403278 183.268009,22.9569608 C183.554737,24.0223785 184.651991,24.6499861 185.718009,24.3660873 C186.78643,24.0805937 187.417551,22.989657 187.133227,21.9242392 C186.644668,20.1115937 185.286316,15.5716063 186.36595,11.7955937 C187.32865,7.98528987 190.782197,4.73082152 192.118924,3.40303671 C192.899817,2.62470759 192.899817,1.36311266 192.118924,0.583188608 C191.335629,-0.194343038 190.070183,-0.194343038 189.289291,0.583188608 C187.952563,1.91336582 184.68643,5.35204937 180.860458,6.31060633 C177.063318,7.38639114 172.507712,6.03388481 170.683227,5.54902405 C169.615606,5.26353038 168.519153,5.89273291 168.234828,6.9565557 C167.948101,8.01718861 168.581625,9.11051772 169.650046,9.39601139 C171.472128,9.88166962 176.094211,10.9789861 178.843753,13.8012266" id="Fill-33" fill="#E3013A"></path>
                    <polygon id="Fill-35" fill="#878786" points="0.013215103 12.6420266 0.013215103 15.5982418 1.55097254 15.5982418 2.18289474 16.2250519 2.18289474 33.4160772 1.55097254 34.0468747 0.013215103 34.0468747 0.013215103 37.0030899 10.0118421 37.0030899 10.0118421 34.0468747 8.43564073 34.0468747 7.84456522 33.4160772 7.84456522 16.2250519 8.43564073 15.5982418 10.0118421 15.5982418 10.0118421 12.6420266"></polygon>
                    <path d="M18.1538673,11.5969443 C19.5522654,11.5969443 19.7621053,12.3984 19.7621053,13.1280835 L19.7621053,20.5421468 C20.7736613,19.2885266 22.3482609,18.2087544 24.654897,18.2087544 C28.3591304,18.2087544 31.2608467,21.3778937 31.2608467,27.5359443 C31.2608467,33.7314759 27.9066133,37.3487924 23.8860183,37.3487924 C21.9990618,37.3487924 20.4973455,36.3782734 19.518627,35.2977038 L19.4473455,35.2977038 L19.4473455,35.469957 C19.4473455,36.2020329 19.2375057,37.0034886 17.8391076,37.0034886 L12.282357,37.0034886 L12.282357,34.2179316 L13.8201144,34.2179316 L14.4496339,33.5911215 L14.4496339,15.182362 L13.8201144,14.5531595 L12.282357,14.5531595 L12.282357,11.5969443 L18.1538673,11.5969443 Z M19.7621053,23.0477924 L19.7621053,32.4435646 C20.5998627,33.2434253 21.5449428,33.5911215 22.5941419,33.5911215 C24.6893364,33.5911215 25.7385355,31.8526405 25.7385355,27.6061215 C25.7385355,23.2894253 24.6893364,22.1099696 22.5236613,22.1099696 C21.789222,22.1099696 20.7055835,22.3165139 19.7621053,23.0477924 L19.7621053,23.0477924 Z" id="Fill-37" fill="#878786"></path>
                    <path d="M47.5831808,29.2070392 L38.2156751,29.2070392 C38.5993135,32.6879886 40.4886728,33.9376215 43.1789474,33.9376215 C45.102746,33.9376215 46.6405034,33.383381 47.2339817,33.2087354 L47.2339817,36.0620772 C46.2897025,36.6888873 44.4387872,37.3499886 41.3624714,37.3499886 C36.7483982,37.3499886 32.7302059,34.6011152 32.7302059,28.1296595 C32.7302059,21.7251911 36.1204805,18.2099506 40.8378719,18.2099506 C45.6273455,18.2099506 48.2135011,21.1677608 48.2135011,25.6941911 L48.2135011,28.5475329 L47.5831808,29.2070392 Z M38.2156751,26.2468367 L43.0395881,26.2468367 L43.0395881,25.0306975 C43.0395881,22.6996975 42.5149886,21.5521405 40.8034325,21.5521405 C39.0902746,21.5521405 38.3894737,23.0808873 38.2156751,26.2468367 L38.2156751,26.2468367 Z" id="Fill-39" fill="#878786"></path>
                    <path d="M57.7202059,34.2180911 L59.6760412,34.2180911 L59.6760412,37.0036481 L49.6469794,37.0036481 L49.6469794,34.2180911 L51.1823341,34.2180911 L51.8142563,33.591281 L51.8142563,22.1420278 L51.1823341,21.5168127 L49.6469794,21.5168127 L49.6469794,18.5582051 L55.2029291,18.5582051 C56.6021281,18.5582051 56.811968,19.3604582 56.811968,20.0877494 L56.811968,21.0279646 L56.9168879,21.0279646 C57.4054462,20.3692557 59.2563616,18.2089139 62.0195195,18.2089139 C62.7179176,18.2089139 63.4163158,18.3157747 63.4163158,18.3157747 L63.4163158,25.5886861 L60.2006407,25.5886861 L60.2006407,23.1508253 L59.6071625,22.5941924 C58.523524,22.8047241 57.615286,23.2568886 57.1267277,23.5344076 L57.1267277,33.591281 L57.7202059,34.2180911 Z" id="Fill-41" fill="#878786"></path>
                    <path d="M71.0373455,18.559162 C72.4357437,18.559162 72.6455835,19.3590228 72.6455835,20.0879089 L72.6455835,33.5914405 L73.2390618,34.2190481 L74.8112586,34.2190481 L74.8112586,37.0038076 L65.1658352,37.0038076 L65.1658352,34.2190481 L66.7035927,34.2190481 L67.3315103,33.5914405 L67.3315103,22.1421873 L66.7035927,21.5153772 L65.1658352,21.5153772 L65.1658352,18.559162 L71.0373455,18.559162 Z M69.6749886,11.0773139 C71.666865,11.0773139 72.6455835,12.1538962 72.6455835,13.8580861 C72.6455835,15.5646684 71.666865,16.643643 69.6749886,16.643643 C67.6831121,16.643643 66.7035927,15.5646684 66.7035927,13.8580861 C66.7035927,12.1538962 67.6831121,11.0773139 69.6749886,11.0773139 L69.6749886,11.0773139 Z" id="Fill-43" fill="#878786"></path>
                    <path d="M75.8944966,37.0038076 L75.8944966,34.2182506 L77.432254,34.2182506 L78.0625744,33.5914405 L78.0625744,22.1421873 L77.432254,21.5153772 L75.8944966,21.5153772 L75.8944966,18.559162 L81.452849,18.559162 C82.8504462,18.559162 83.060286,19.3606177 83.060286,20.0887063 L83.060286,20.7155165 L83.1652059,20.7155165 C83.7578833,20.0201241 85.6112014,18.2090734 88.3727574,18.2090734 C92.5319108,18.2090734 93.7557094,20.7155165 93.7557094,23.7785924 L93.7557094,33.5914405 L94.3852288,34.2182506 L95.9229863,34.2182506 L95.9229863,37.0038076 L86.6948398,37.0038076 L86.6948398,34.2182506 L87.8497597,34.2182506 L88.4424371,33.5914405 L88.4424371,24.6119468 C88.4424371,23.5688582 88.3359153,22.1421873 86.1358009,22.1421873 C84.9152059,22.1421873 83.8996453,22.6988203 83.3750458,23.0824025 L83.3750458,33.5914405 L83.9701259,34.2182506 L85.122643,34.2182506 L85.122643,37.0038076 L75.8944966,37.0038076 Z" id="Fill-45" fill="#878786"></path>
                    <path d="M105.185412,21.5162544 L105.185412,33.5923177 L105.77889,34.2175329 L107.912529,34.2175329 L107.912529,37.0046848 L97.7072654,37.0046848 L97.7072654,34.2175329 L99.2434211,34.2175329 L99.8753432,33.5923177 L99.8753432,21.5162544 L97.7072654,21.5162544 L97.7072654,18.6278241 L99.2434211,18.6278241 L99.8753432,18.0010139 L99.8753432,17.5831405 C99.8753432,14.4163937 101.584497,11.2504443 106.620652,11.2504443 C108.993764,11.2504443 110.392963,11.6324316 110.392963,11.6324316 L110.392963,15.7385962 L107.284611,15.7385962 L107.284611,14.4163937 L106.828089,13.9634316 L106.79365,13.9634316 C105.429691,13.9634316 105.185412,15.5655456 105.185412,17.2697354 L105.185412,18.6278241 L109.101087,18.6278241 L109.101087,21.5162544 L105.185412,21.5162544 Z" id="Fill-47" fill="#878786"></path>
                    <path d="M118.397311,37.3499089 C113.751201,37.3499089 109.904405,34.2876304 109.904405,27.7802886 C109.904405,21.2721494 113.751201,18.2098709 118.397311,18.2098709 C123.045824,18.2098709 126.890217,21.2721494 126.890217,27.7802886 C126.890217,34.2876304 123.045824,37.3499089 118.397311,37.3499089 M118.397311,21.6198456 C116.126716,21.6198456 115.428318,23.7427063 115.428318,27.7802886 C115.428318,31.8178709 116.126716,33.9399342 118.397311,33.9399342 C120.667906,33.9399342 121.367906,31.8178709 121.367906,27.7802886 C121.367906,23.7427063 120.667906,21.6198456 118.397311,21.6198456" id="Fill-49" fill="#878786"></path>
                    <path d="M136.294325,34.2180911 L138.25016,34.2180911 L138.25016,37.0036481 L128.218696,37.0036481 L128.218696,34.2180911 L129.756453,34.2180911 L130.386773,33.591281 L130.386773,22.1420278 L129.756453,21.5168127 L128.218696,21.5168127 L128.218696,18.5582051 L133.777048,18.5582051 C135.176247,18.5582051 135.386087,19.3604582 135.386087,20.0877494 L135.386087,21.0279646 L135.489405,21.0279646 C135.977162,20.3692557 137.830481,18.2089139 140.591236,18.2089139 C141.292037,18.2089139 141.990435,18.3157747 141.990435,18.3157747 L141.990435,25.5886861 L138.77476,25.5886861 L138.77476,23.1508253 L138.181281,22.5941924 C137.097643,22.8047241 136.187002,23.2568886 135.698444,23.5344076 L135.698444,33.591281 L136.294325,34.2180911 Z" id="Fill-51" fill="#878786"></path>
                    <path d="M143.738833,37.0038076 L143.738833,34.2182506 L145.27659,34.2182506 L145.906911,33.5914405 L145.906911,22.1421873 L145.27659,21.5153772 L143.738833,21.5153772 L143.738833,18.559162 L149.295584,18.559162 C150.693982,18.559162 150.903822,19.3606177 150.903822,20.0887063 L150.903822,20.7155165 L151.008741,20.7155165 C151.501304,20.1588835 153.245698,18.2090734 156.042494,18.2090734 C158.80405,18.2090734 160.271327,19.3247316 160.935286,20.9946304 C161.494325,20.2633519 163.310801,18.2090734 166.247757,18.2090734 C170.405309,18.2090734 171.630709,20.7155165 171.630709,23.7785924 L171.630709,33.5914405 L172.258627,34.2182506 L173.796384,34.2182506 L173.796384,37.0038076 L164.570641,37.0038076 L164.570641,34.2182506 L165.723158,34.2182506 L166.318238,33.5914405 L166.318238,24.6119468 C166.318238,23.5688582 166.214119,22.1421873 164.187002,22.1421873 C162.927162,22.1421873 161.914005,22.7347063 161.389405,23.1166937 C161.423844,23.3264278 161.423844,23.5688582 161.423844,23.7785924 L161.423844,33.5914405 L162.053364,34.2182506 L163.452563,34.2182506 L163.452563,37.0038076 L154.502334,37.0038076 L154.502334,34.2182506 L155.518696,34.2182506 L156.111373,33.5914405 L156.111373,24.6119468 C156.111373,23.5688582 156.006453,22.1421873 153.980137,22.1421873 C152.75714,22.1421873 151.743982,22.6988203 151.218581,23.0824025 L151.218581,33.5914405 L151.814462,34.2182506 L152.965378,34.2182506 L152.965378,37.0038076 L143.738833,37.0038076 Z" id="Fill-53" fill="#878786"></path>
                    <polygon id="Fill-55" fill="#E3013A" points="241.631911 26.5447709 253.142666 26.5447709 253.142666 30.687619 251.29976 30.687619 251.29976 29.0591886 250.926533 28.6883658 249.063604 28.6883658 249.063604 38.8505051 249.416007 39.2213278 250.554908 39.2213278 250.554908 40.9741633 244.219668 40.9741633 244.219668 39.2213278 245.336945 39.2213278 245.710172 38.8505051 245.710172 28.6883658 243.847243 28.6883658 243.474016 29.0591886 243.474016 30.687619 241.631911 30.687619"></polygon>
                    <path d="M256.142654,34.6043848 L258.999519,34.6043848 L258.999519,33.8826759 C258.999519,32.5022582 258.689565,31.8220177 257.674805,31.8220177 C256.660046,31.8220177 256.245973,32.7287392 256.142654,34.6043848 L256.142654,34.6043848 Z M261.690595,36.3564228 L256.142654,36.3564228 C256.370915,38.4178785 257.488192,39.1595241 259.082014,39.1595241 C260.220915,39.1595241 261.131556,38.8301696 261.483158,38.7272962 L261.483158,40.4179291 C260.92492,40.7887519 259.827666,41.1803089 258.006384,41.1803089 C255.273661,41.1803089 252.89254,39.5518785 252.89254,35.7176506 C252.89254,31.9248911 254.900435,29.8427013 257.695629,29.8427013 C260.53167,29.8427013 262.063822,31.5947392 262.063822,34.2742329 L262.063822,35.9648658 L261.690595,36.3564228 Z" id="Fill-57" fill="#E3013A"></path>
                    <path d="M271.5646,40.3556468 C271.026384,40.8915456 269.722494,41.1802291 268.501098,41.1802291 C265.68508,41.1802291 263.201442,39.4281911 263.201442,35.6553684 C263.201442,31.7597354 265.747551,29.8426215 268.749382,29.8426215 C270.384851,29.8426215 271.585423,30.296381 271.585423,30.296381 L271.585423,33.800457 L269.577529,33.800457 L269.577529,32.1313557 L269.205103,31.7804696 C269.121808,31.7597354 269.060137,31.7597354 268.977643,31.7597354 C267.217231,31.7597354 266.47238,33.0994823 266.47238,35.5325582 C266.47238,37.9640392 267.486339,39.1594443 269.370892,39.1594443 C270.280732,39.1594443 271.275469,38.8715582 271.5646,38.7686848 L271.5646,40.3556468 Z" id="Fill-59" fill="#E3013A"></path>
                    <path d="M279.058284,40.9740038 L279.058284,39.3248392 L279.741465,39.3248392 L280.093066,38.9540165 L280.093066,33.6357 C280.093066,33.0168646 280.031396,32.1723456 278.726705,32.1723456 C278.002677,32.1723456 277.401991,32.5017 277.091236,32.7289785 L277.091236,38.9540165 L277.442838,39.3248392 L278.126018,39.3248392 L278.126018,40.9740038 L272.661373,40.9740038 L272.661373,39.3248392 L273.571213,39.3248392 L273.944439,38.9540165 L273.944439,28.0494342 L273.571213,27.6786114 L272.661373,27.6786114 L272.661373,25.9265734 L276.138146,25.9265734 C276.967094,25.9265734 277.091236,26.4002696 277.091236,26.8332949 L277.091236,31.2034215 C277.526133,30.7289278 278.560915,29.8429405 280.051419,29.8429405 C282.515034,29.8429405 283.239863,31.3270291 283.239863,33.1412696 L283.239863,38.9540165 L283.613089,39.3248392 L284.522929,39.3248392 L284.522929,40.9740038 L279.058284,40.9740038 Z" id="Fill-61" fill="#E3013A"></path>
                    <path d="M292.222529,25.6172354 C293.403078,25.6172354 293.98214,26.2560076 293.98214,27.2664 C293.98214,28.2759949 293.403078,28.9155646 292.222529,28.9155646 C291.04278,28.9155646 290.463719,28.2759949 290.463719,27.2664 C290.463719,26.2560076 291.04278,25.6172354 292.222529,25.6172354 L292.222529,25.6172354 Z M293.030652,30.0487671 C293.858799,30.0487671 293.98214,30.5232608 293.98214,30.9554886 L293.98214,38.9540962 L294.334542,39.324919 L295.266808,39.324919 L295.266808,40.9740835 L289.552277,40.9740835 L289.552277,39.324919 L290.463719,39.324919 L290.836144,38.9540962 L290.836144,32.1724253 L290.463719,31.8008051 L289.552277,31.8008051 L289.552277,30.0487671 L293.030652,30.0487671 Z" id="Fill-63" fill="#E3013A"></path>
                    <path d="M300.440561,31.8011241 L300.440561,38.9536177 L300.813787,39.325238 L302.821682,39.325238 L302.821682,40.9736051 C302.821682,40.9736051 301.496167,41.1801494 300.026487,41.1801494 C298.225229,41.1801494 297.293764,40.520643 297.293764,38.6242633 L297.293764,31.8011241 L296.010698,31.8011241 L296.010698,30.089757 L296.921339,30.089757 L297.293764,29.7189342 L298.474314,27.1630481 L300.440561,27.1630481 L300.440561,30.089757 L302.760011,30.089757 L302.760011,31.8011241 L300.440561,31.8011241 Z" id="Fill-65" fill="#E3013A"></path>
                    <path d="M311.287357,34.6043848 L314.144222,34.6043848 L314.144222,33.8826759 C314.144222,32.5022582 313.834268,31.8220177 312.819508,31.8220177 C311.804748,31.8220177 311.391476,32.7287392 311.287357,34.6043848 L311.287357,34.6043848 Z M316.836098,36.3564228 L311.287357,36.3564228 C311.514817,38.4178785 312.633696,39.1595241 314.227517,39.1595241 C315.366419,39.1595241 316.276259,38.8301696 316.628661,38.7272962 L316.628661,40.4179291 C316.069622,40.7887519 314.973169,41.1803089 313.150286,41.1803089 C310.418364,41.1803089 308.037243,39.5518785 308.037243,35.7176506 C308.037243,31.9248911 310.045137,29.8427013 312.839531,29.8427013 C315.676373,29.8427013 317.208524,31.5947392 317.208524,34.2742329 L317.208524,35.9648658 L316.836098,36.3564228 Z" id="Fill-67" fill="#E3013A"></path>
                    <path d="M324.245847,38.252962 L324.245847,36.4801899 L322.775366,36.4801899 C321.782231,36.4801899 321.347334,36.892481 321.347334,37.6755949 C321.347334,38.418038 321.678913,38.8510633 322.652025,38.8510633 C323.334405,38.8510633 323.935092,38.4802405 324.245847,38.252962 L324.245847,38.252962 Z M328.634062,40.9739241 L325.383947,40.9739241 C324.556602,40.9739241 324.431659,40.4994304 324.431659,40.0672025 L324.431659,39.6756456 L324.329142,39.6756456 C323.976739,40.1294051 322.941156,41.1796709 321.429828,41.1796709 C319.193673,41.1796709 318.242185,39.778519 318.242185,38.026481 C318.242185,35.9028228 319.670217,34.7281519 321.926396,34.7281519 L324.245847,34.7281519 L324.245847,33.8421646 C324.245847,32.645962 324.183375,31.7807089 322.402941,31.7807089 C322.133833,31.7807089 321.823879,31.801443 321.4923,31.8421139 L321.181545,32.1515316 L321.181545,33.5327468 L319.17365,33.5327468 L319.17365,30.5023671 C320.105114,30.2344177 321.616442,29.8428608 323.479371,29.8428608 C326.439554,29.8428608 327.350995,31.4298228 327.350995,33.3469367 L327.350995,38.9539367 L327.723421,39.3247595 L328.634062,39.3247595 L328.634062,40.9739241 Z" id="Fill-69" fill="#E3013A"></path>
                    <path d="M333.311728,41.1799899 C331.055549,41.1799899 329.64754,40.7062937 329.64754,40.7062937 L329.64754,37.6344456 L331.490446,37.6344456 L331.490446,38.8505848 L331.842048,39.2214076 C332.256121,39.2836101 332.711842,39.3250785 333.27008,39.3250785 C334.388959,39.3250785 334.885526,38.7477114 334.885526,38.1711418 C334.885526,37.4286987 334.636442,37.1806861 332.918478,36.7069899 C330.330721,35.985281 329.668364,34.7077367 329.668364,33.2029139 C329.668364,31.2443316 331.427975,29.8431797 334.264016,29.8431797 C336.044451,29.8431797 337.51413,30.1932684 337.51413,30.1932684 L337.51413,33.1821797 L335.672025,33.1821797 L335.672025,32.1103823 L335.320423,31.7802304 C334.988844,31.7188253 334.616419,31.677357 334.223169,31.677357 C333.20841,31.677357 332.607723,32.0896481 332.607723,32.7284203 C332.607723,33.264319 332.75349,33.6359392 334.243192,34.0689646 C336.872597,34.8520785 337.969851,35.6351924 337.969851,37.510838 C337.969851,39.8609772 335.98278,41.1799899 333.311728,41.1799899" id="Fill-71" fill="#E3013A"></path>
                    <polygon id="Fill-73" fill="#E3013A" points="349.169691 31.8011241 348.796465 32.1719468 344.925641 42.4576937 345.278043 42.8293139 346.084565 42.8293139 346.084565 44.477681 340.992346 44.477681 340.992346 42.8293139 342.337883 42.8293139 342.710309 42.4576937 343.145206 41.2415544 339.439371 32.1512127 339.086968 31.8011241 338.404588 31.8011241 338.404588 30.0490861 343.786739 30.0490861 343.786739 31.8011241 343.186053 31.8011241 342.834451 32.1719468 344.594062 37.1808456 346.39532 32.1719468 346.043719 31.8011241 345.359737 31.8011241 345.359737 30.0490861 349.7904 30.0490861 349.7904 31.8011241"></polygon>
                    <path d="M217.170755,11.5969443 L217.170755,58.7472608" id="Stroke-75" stroke="#656564" stroke-width="0.8064"></path>
                </g>
            </g>
        </g>
    </g>
</svg>